<svg xmlns="http://www.w3.org/2000/svg" viewBox="0 0 50.856 43.84">
  <defs>
    <style>
      .cls-1 {
        fill: #fff;
      }
    </style>
  </defs>
  <path id="Path_45" data-name="Path 45" class="cls-1" d="M48.411-1081.813c-.109.016-.43.061-.709.1a7.531,7.531,0,0,0-5.6,3.842c-.162.263-.272.4-.332.413-.045.008-.267.024-.49.041s-.952.057-1.621.1c-1.52.1-4.592.3-6.221.405-.681.045-1.5.1-1.824.122s-1.435.1-2.472.162-2.148.138-2.472.162-1.71.113-3.08.2-2.756.178-3.08.2-1.435.1-2.472.162-2.148.138-2.472.162-1.435.1-2.472.162-2.148.138-2.472.162-1.435.1-2.472.162c-4.661.3-4.45.28-5.013.547a4.348,4.348,0,0,0-2.314,3.019c-.109.511-.089.713.272,2.493.324,1.621.523,2.622,1.868,9.484.357,1.828.734,3.733.831,4.235a4.672,4.672,0,0,0,.34,1.244,3.871,3.871,0,0,0,2.8,2.2c.154.028,4.673.041,15.381.036,11.437,0,15.17.008,15.182.041.02.069-.653,4.065-.7,4.106a1.444,1.444,0,0,1-.369.093,4.931,4.931,0,0,0-3.81,3.388.95.95,0,0,1-.142.332c-.024.008-2.387,0-5.249-.016s-6.473-.036-8.021-.041-2.886-.012-2.967-.024c-.146-.024-.15-.028-.255-.377a4.9,4.9,0,0,0-1.617-2.33,4.3,4.3,0,0,0-1.131-.669,5.028,5.028,0,0,0-2.946-.284A4.928,4.928,0,0,0,6.5-1043.7a4.833,4.833,0,0,0,1.427,4.219,4.915,4.915,0,0,0,5.881.709,4.885,4.885,0,0,0,2.262-3,.927.927,0,0,1,.1-.276c.041-.024,16.11.061,16.236.089.065.012.1.061.134.19a4.924,4.924,0,0,0,1.386,2.363,4.975,4.975,0,0,0,2.861,1.338,2.351,2.351,0,0,0,.851.02,6.5,6.5,0,0,0,1.285-.288,4.888,4.888,0,0,0,2.979-2.979,4.88,4.88,0,0,0-.223-3.773,4.878,4.878,0,0,0-2.379-2.31,2.359,2.359,0,0,1-.385-.194,17.813,17.813,0,0,1,.353-2.416c.219-1.305.774-4.616,1.236-7.356s.989-5.9,1.175-7.011c.438-2.61,1.256-7.49,1.7-10.153l.349-2.087.182-.292a7.339,7.339,0,0,1,1.139-1.394,4.817,4.817,0,0,1,2.545-1.333,11.281,11.281,0,0,1,3.4.02,2.09,2.09,0,0,0,.336.041,18.233,18.233,0,0,0,.272-2,5.268,5.268,0,0,0-.79-.122c-.413-.049-.908-.105-1.1-.126A5.876,5.876,0,0,0,48.411-1081.813Zm-6.991,6.546c0,.057-.045.361-.1.677s-.462,2.756-.908,5.419-1.066,6.355-1.378,8.207-.7,4.146-.855,5.107-.3,1.755-.32,1.771-6.853.041-15.2.053c-14.027.028-15.2.024-15.438-.036a2.215,2.215,0,0,1-.454-.174,2.145,2.145,0,0,1-.746-.79,18.685,18.685,0,0,1-.446-2c-.19-.981-.547-2.8-.79-4.033-.507-2.569-1.694-8.637-1.848-9.423a1.648,1.648,0,0,1,.1-1.341,2.372,2.372,0,0,1,.936-1c.255-.118-.032-.093,3.972-.353,1.37-.089,2.756-.178,3.08-.2s1.435-.1,2.472-.162,2.148-.138,2.472-.162,1.435-.1,2.472-.162,2.148-.138,2.472-.162,1.435-.1,2.472-.162,2.148-.138,2.472-.162,1.435-.1,2.472-.162,2.148-.138,2.472-.162,1.435-.1,2.472-.162l2.776-.182,2.493-.162c.879-.057,1.791-.121,2.026-.138s.523-.036.64-.04C41.408-1075.373,41.42-1075.369,41.42-1075.267Zm-29.538,29.7a2.7,2.7,0,0,1,1.962,1.779,2.094,2.094,0,0,1,.113.774,2.45,2.45,0,0,1-.786,1.889,2.611,2.611,0,0,1-3.194.393,2.816,2.816,0,0,1-1.147-1.451,3.169,3.169,0,0,1-.061-1.394A2.652,2.652,0,0,1,11.882-1045.564Zm26.166.109a2.35,2.35,0,0,1,1.1.681,2.349,2.349,0,0,1,.758,1.966,2.4,2.4,0,0,1-.758,1.727,2.525,2.525,0,0,1-1.844.766,2.4,2.4,0,0,1-1.848-.77,2.061,2.061,0,0,1-.515-.689,2.3,2.3,0,0,1-.267-1.2,2.222,2.222,0,0,1,.312-1.212,2.692,2.692,0,0,1,1.994-1.374A3.288,3.288,0,0,1,38.048-1045.454Z" transform="translate(-0.759 1081.851)"/>
</svg>
