<svg id="Layer_1" data-name="Layer 1" xmlns="http://www.w3.org/2000/svg" viewBox="0 0 901 901"><defs><style>.cls-1{fill:#fff;}</style></defs><title>ampshoplogo-nodrop</title><circle class="cls-1" cx="450.5" cy="450.5" r="398.39"/><path d="M787,324.71,802.15,322c-61-168.57-235.94-274-418.48-241.8-132.5,23.36-236.45,113.5-283.34,229.7a126.4,126.4,0,0,1,21.74-.19c77.51-180.5,286.68-264,467.18-186.48A355.69,355.69,0,0,1,782.07,325.55"/><path d="M748.28,642.3c-2.59,4-5.24,8-8,12C627.45,815.24,405.51,854.24,244.57,741.4a355.89,355.89,0,0,1-77-73.36A83.35,83.35,0,0,1,151,679.29c82.63,107.26,220.58,166.08,363.15,140.94a374.84,374.84,0,0,0,257.3-177.32A82.73,82.73,0,0,1,748.28,642.3Z"/><path d="M161.14,396.77,160.7,600c-1.23,30.75-24.82,51.23-46.9,51.2-23.94-.31-43-19-42.38-41.5l0,.29c.07-23.59,20.49-43.22,43.88-44.32l7,.28v-19a59.92,59.92,0,0,0-17.76.41c-28.73,5.07-51.78,32.1-52.18,62.4a67.89,67.89,0,0,0,1,10.71c4.91,27.85,29.78,48.86,60.37,49.21a57.59,57.59,0,0,0,11.93-.89c30.49-5.38,54.4-34.38,54.58-72.8l.25-202.59Z"/><path d="M383.78,354.79c-14.07,2.48-26.87,15.62-27,35.3l-.32,174.79,19.64-3.46.08-54.43,13.19-2.33L389,559.14l19.64-3.46.58-178.46C408.82,363.07,397.56,352.36,383.78,354.79Zm6.07,25.83-.53,105-13.19,2.33.72-105.63c.16-4.26,3.21-7.52,6.43-8.09,4.39-.76,6.53,2.77,6.56,6.4Z"/><path d="M548.31,384.47c-5.57,1-9.85,4.15-13.35,6.59l-15.83,2.79.16,105.62-.11,9.52a7.28,7.28,0,0,1-5.71,7A6.3,6.3,0,0,1,506,509.8l.57-91.09c.21-14.25-11.64-24.85-25.42-22.42-5.57,1-11,4.36-15.92,9.16-5.36-3-11-4.4-16.62-3.42-14.07,2.48-26.91,17.14-26.87,31l-.62,116.49,19.64-3.46.91-116.55c.21-4,2.33-7.36,6.14-8,4.4-.78,6.78,2.43,6.86,6.35L454,543.75l19.35-3.41.49-82.92a12.93,12.93,0,0,1,0-1.52l.38-32.11c.21-4,2.62-7.42,6.14-8,4.4-.78,6.78,2.43,6.86,6.35l-.93,92.33c-.21,14.24,11.64,24.85,25.71,22.37a28.46,28.46,0,0,0,7.34-2.39l.06,41L538.75,572l.13-43.86a26.14,26.14,0,0,0,8.57.6c14.08-2.49,24.55-15.21,24.55-30.63V407.47C572,393.55,561.21,382.15,548.31,384.47Zm4.6,26.09-.17,91.63c0,4.85-3.11,8.11-5.74,8.57-5,.88-8-2.23-8-7.37l.41-92a7.61,7.61,0,0,1,6-7.1,6.3,6.3,0,0,1,7.45,6.23Z"/><path d="M631.2,378l-.13-40.18a7.6,7.6,0,0,1,5.66-7.35c4-1,7.45,1.1,7.5,6.54l.37,60.39L664,394l.06-61.38c-.38-14.14-11.93-24.8-25.71-22.37-15.25,2.69-26.51,17.67-26.56,32.8l-.07,39c0,17.23,7.48,30.42,18.41,42.7,7.62,8.93,14.79,17,14.67,30.06V485.9a8.91,8.91,0,0,1-6.62,8.73c-3.23.57-6.67-1.85-6.62-6.69V443.5L611.92,447l-.45,45.43c.08,14.19,12.22,24.75,26,22.32,15-2.64,26.51-17.67,26.56-32.8l.25-31.18a44.27,44.27,0,0,0-.57-8.36c-2-11.43-8.84-19.3-15.38-27.22C639.63,405.2,631.11,394.61,631.2,378Z"/><path d="M697.29,384.15a7.71,7.71,0,0,1,5.9-7.69c5-.88,7.36,2.33,7.45,6.24l-.94,92.37a22,22,0,0,0,25.7,22.4,31.21,31.21,0,0,0,17-9.61,23.49,23.49,0,0,0,17.26,3.56c15-2.64,25.34-17.47,25.39-32.59V368.14c-.08-14.19-12.28-25-26.06-22.61-14.9,2.93-26.51,17.67-26.48,31.57l-.06,92.21V470c-.27,3.17-3.16,6.17-5.68,6.61-3.81.67-7.26-1.74-7.36-7.47l.48-89.87c.21-14.23-11.62-24.83-25.38-22.43a36.12,36.12,0,0,0-7.74,2.57l-.1-57.12-19.35,3.41L677,504.41l20-3.52Zm65.31,80.69-.07-91.28c-.14-4.21,2.81-8,6-8.62,3.81-.67,7.21,1.45,7.35,5.66l-.09,91.87c0,5.43-3.93,8.55-6.57,9C766,472.1,762.55,469.69,762.6,464.84Z"/><path d="M837.08,333.47c-5.57,1-9.85,4.15-13.35,6.59l-15.83,2.79.28,212.47c-.07,28.73-19.53,47-39.76,50.54-23.45,4.14-45.1-12.3-48.92-34-4.29-24.33,15.42-46.25,37.71-50.18a36,36,0,0,1,5.62-.69,21.84,21.84,0,0,1,6.17.48c0-6.66.92-12,.9-18.9-2.79-.41-5.83-.48-7-.57a69.42,69.42,0,0,0-10.76.69c-34.3,6-56.73,41.74-51.2,73.11,6,34.3,41.52,53.74,72.3,48.32s54.26-33.45,54.28-72.75l.23-74.1a26.14,26.14,0,0,0,8.57.6c14.07-2.48,24.53-15.21,24.53-30.63V356.55C860.76,342.63,850,331.23,837.08,333.47Zm4.6,26.09-.17,91.63c0,4.85-3.11,8.11-5.74,8.57-5,.88-8-2.23-8-7.37l.41-92a7.61,7.61,0,0,1,6-7.1,6.3,6.3,0,0,1,7.45,6.31Z"/><path d="M314.52,361.38l34-12.55-3.24-8.77-34,12.55-1.55-4.2-3.66,1.35-1.15-3.11-46.61,17.22-12.1,8.45c-1.51.35-3,.62-4.57.89-16.13,2.84-32.56-6.35-51.65-16.89-25.5-14.25-56-31-96.12-23.85a101.67,101.67,0,0,0,35.31,200.25l7-1.24c0-7-.07-12.38.16-19.68-3.47.91-7,1.53-10.5,2.15a82.46,82.46,0,0,1-95.53-66.88h0c-7.91-44.86,22-87.92,66.84-95.83,32.25-5.69,57,8.08,80.57,21.46,10.49,5.94,20.74,11.78,31.48,15.61l-10.56,1.86-.34,198.67,19.94-3.52V468.92c0-3.33,2.33-7.36,6.14-8,5-.88,7.36,2.33,7.45,6.24l-1.47,120.27a22,22,0,0,0,25.71,22.37c15-2.64,26.16-17.92,26.56-32.8v-1a23.25,23.25,0,0,0,7.66-.09c14.66-2.58,27-18.07,27.15-32.9l.21-19.38-20.23,3.57.1,21.14c-.07,3-3.12,6.29-6.35,6.86-3.81.67-7-2.09-7.16-6.3l.09-32.06L317.52,511l-.7-58.82c-.14-14.49-11.93-24.8-26-22.32-14.66,2.58-26.27,17.33-26.43,31.87l-.58,86.79-.56,33.17c0,3.33-2.43,6.78-5.66,7.35-3.81.67-7-2.09-6.86-6.35l.5-118.89c-.08-14.18-11.62-24.83-25.38-22.43a38.52,38.52,0,0,0-7.75,2.57l-.1-53a63.93,63.93,0,0,0,26.28.87,28.93,28.93,0,0,0,7.93-2.5l14.72-2,46.62-17.22-1.15-3.11,3.66-1.35ZM284.15,456.7a7.53,7.53,0,0,1,6.24-7.45c4.1-.72,6.67,1.85,6.86,6.35l.53,40.72L284,498.74Z"/><polygon points="365.12 342.68 368.11 336.59 361.88 333.91 355.05 338.34 357.05 343.76 365.12 342.68"/><rect x="348.53" y="338.09" width="5.69" height="9.35" transform="translate(-97.02 143.04) rotate(-20.28)"/><path d="M787,324.71,802.15,322c-61-168.57-235.94-274-418.48-241.8-132.5,23.36-236.45,113.5-283.34,229.7a126.4,126.4,0,0,1,21.74-.19c77.51-180.5,286.68-264,467.18-186.48A355.69,355.69,0,0,1,782.07,325.55"/><path d="M748.28,642.3c-2.59,4-5.24,8-8,12C627.45,815.24,405.51,854.24,244.57,741.4a355.89,355.89,0,0,1-77-73.36A83.35,83.35,0,0,1,151,679.29c82.63,107.26,220.58,166.08,363.15,140.94a374.84,374.84,0,0,0,257.3-177.32A82.73,82.73,0,0,1,748.28,642.3Z"/><path d="M161.14,396.77,160.7,600c-1.23,30.75-24.82,51.23-46.9,51.2-23.94-.31-43-19-42.38-41.5l0,.29c.07-23.59,20.49-43.22,43.88-44.32l7,.28v-19a59.92,59.92,0,0,0-17.76.41c-28.73,5.07-51.78,32.1-52.18,62.4a67.89,67.89,0,0,0,1,10.71c4.91,27.85,29.78,48.86,60.37,49.21a57.59,57.59,0,0,0,11.93-.89c30.49-5.38,54.4-34.38,54.58-72.8l.25-202.59Z"/><path d="M383.78,354.79c-14.07,2.48-26.87,15.62-27,35.3l-.32,174.79,19.64-3.46.08-54.43,13.19-2.33L389,559.14l19.64-3.46.58-178.46C408.82,363.07,397.56,352.36,383.78,354.79Zm6.07,25.83-.53,105-13.19,2.33.72-105.63c.16-4.26,3.21-7.52,6.43-8.09,4.39-.76,6.53,2.77,6.56,6.4Z"/><path d="M548.31,384.47c-5.57,1-9.85,4.15-13.35,6.59l-15.83,2.79.16,105.62-.11,9.52a7.28,7.28,0,0,1-5.71,7A6.3,6.3,0,0,1,506,509.8l.57-91.09c.21-14.25-11.64-24.85-25.42-22.42-5.57,1-11,4.36-15.92,9.16-5.36-3-11-4.4-16.62-3.42-14.07,2.48-26.91,17.14-26.87,31l-.62,116.49,19.64-3.46.91-116.55c.21-4,2.33-7.36,6.14-8,4.4-.78,6.78,2.43,6.86,6.35L454,543.75l19.35-3.41.49-82.92a12.93,12.93,0,0,1,0-1.52l.38-32.11c.21-4,2.62-7.42,6.14-8,4.4-.78,6.78,2.43,6.86,6.35l-.93,92.33c-.21,14.24,11.64,24.85,25.71,22.37a28.46,28.46,0,0,0,7.34-2.39l.06,41L538.75,572l.13-43.86a26.14,26.14,0,0,0,8.57.6c14.08-2.49,24.55-15.21,24.55-30.63V407.47C572,393.55,561.21,382.15,548.31,384.47Zm4.6,26.09-.17,91.63c0,4.85-3.11,8.11-5.74,8.57-5,.88-8-2.23-8-7.37l.41-92a7.61,7.61,0,0,1,6-7.1,6.3,6.3,0,0,1,7.45,6.23Z"/><path d="M631.2,378l-.13-40.18a7.6,7.6,0,0,1,5.66-7.35c4-1,7.45,1.1,7.5,6.54l.37,60.39L664,394l.06-61.38c-.38-14.14-11.93-24.8-25.71-22.37-15.25,2.69-26.51,17.67-26.56,32.8l-.07,39c0,17.23,7.48,30.42,18.41,42.7,7.62,8.93,14.79,17,14.67,30.06V485.9a8.91,8.91,0,0,1-6.62,8.73c-3.23.57-6.67-1.85-6.62-6.69V443.5L611.92,447l-.45,45.43c.08,14.19,12.22,24.75,26,22.32,15-2.64,26.51-17.67,26.56-32.8l.25-31.18a44.27,44.27,0,0,0-.57-8.36c-2-11.43-8.84-19.3-15.38-27.22C639.63,405.2,631.11,394.61,631.2,378Z"/><path d="M697.29,384.15a7.71,7.71,0,0,1,5.9-7.69c5-.88,7.36,2.33,7.45,6.24l-.94,92.37a22,22,0,0,0,25.7,22.4,31.21,31.21,0,0,0,17-9.61,23.49,23.49,0,0,0,17.26,3.56c15-2.64,25.34-17.47,25.39-32.59V368.14c-.08-14.19-12.28-25-26.06-22.61-14.9,2.93-26.51,17.67-26.48,31.57l-.06,92.21V470c-.27,3.17-3.16,6.17-5.68,6.61-3.81.67-7.26-1.74-7.36-7.47l.48-89.87c.21-14.23-11.62-24.83-25.38-22.43a36.12,36.12,0,0,0-7.74,2.57l-.1-57.12-19.35,3.41L677,504.41l20-3.52Zm65.31,80.69-.07-91.28c-.14-4.21,2.81-8,6-8.62,3.81-.67,7.21,1.45,7.35,5.66l-.09,91.87c0,5.43-3.93,8.55-6.57,9C766,472.1,762.55,469.69,762.6,464.84Z"/><path d="M837.08,333.47c-5.57,1-9.85,4.15-13.35,6.59l-15.83,2.79.28,212.47c-.07,28.73-19.53,47-39.76,50.54-23.45,4.14-45.1-12.3-48.92-34-4.29-24.33,15.42-46.25,37.71-50.18a36,36,0,0,1,5.62-.69,21.84,21.84,0,0,1,6.17.48c0-6.66.92-12,.9-18.9-2.79-.41-5.83-.48-7-.57a69.42,69.42,0,0,0-10.76.69c-34.3,6-56.73,41.74-51.2,73.11,6,34.3,41.52,53.74,72.3,48.32s54.26-33.45,54.28-72.75l.23-74.1a26.14,26.14,0,0,0,8.57.6c14.07-2.48,24.53-15.21,24.53-30.63V356.55C860.76,342.63,850,331.23,837.08,333.47Zm4.6,26.09-.17,91.63c0,4.85-3.11,8.11-5.74,8.57-5,.88-8-2.23-8-7.37l.41-92a7.61,7.61,0,0,1,6-7.1,6.3,6.3,0,0,1,7.45,6.31Z"/><path d="M314.52,361.38l34-12.55-3.24-8.77-34,12.55-1.55-4.2-3.66,1.35-1.15-3.11-46.61,17.22-12.1,8.45c-1.51.35-3,.62-4.57.89-16.13,2.84-32.56-6.35-51.65-16.89-25.5-14.25-56-31-96.12-23.85a101.67,101.67,0,0,0,35.31,200.25l7-1.24c0-7-.07-12.38.16-19.68-3.47.91-7,1.53-10.5,2.15a82.46,82.46,0,0,1-95.53-66.88h0c-7.91-44.86,22-87.92,66.84-95.83,32.25-5.69,57,8.08,80.57,21.46,10.49,5.94,20.74,11.78,31.48,15.61l-10.56,1.86-.34,198.67,19.94-3.52V468.92c0-3.33,2.33-7.36,6.14-8,5-.88,7.36,2.33,7.45,6.24l-1.47,120.27a22,22,0,0,0,25.71,22.37c15-2.64,26.16-17.92,26.56-32.8v-1a23.25,23.25,0,0,0,7.66-.09c14.66-2.58,27-18.07,27.15-32.9l.21-19.38-20.23,3.57.1,21.14c-.07,3-3.12,6.29-6.35,6.86-3.81.67-7-2.09-7.16-6.3l.09-32.06L317.52,511l-.7-58.82c-.14-14.49-11.93-24.8-26-22.32-14.66,2.58-26.27,17.33-26.43,31.87l-.58,86.79-.56,33.17c0,3.33-2.43,6.78-5.66,7.35-3.81.67-7-2.09-6.86-6.35l.5-118.89c-.08-14.18-11.62-24.83-25.38-22.43a38.52,38.52,0,0,0-7.75,2.57l-.1-53a63.93,63.93,0,0,0,26.28.87,28.93,28.93,0,0,0,7.93-2.5l14.72-2,46.62-17.22-1.15-3.11,3.66-1.35ZM284.15,456.7a7.53,7.53,0,0,1,6.24-7.45c4.1-.72,6.67,1.85,6.86,6.35l.53,40.72L284,498.74Z"/><polygon points="365.12 342.68 368.11 336.59 361.88 333.91 355.05 338.34 357.05 343.76 365.12 342.68"/><rect x="348.53" y="338.09" width="5.69" height="9.35" transform="translate(-97.02 143.04) rotate(-20.28)"/><path d="M287.87,710l-3.78-2.38-9.93,15.74-6.32-4,25.35-40.18,10.1,6.37c7.28,4.59,7.91,10.35,2.6,18.76S295.15,714.64,287.87,710Zm11.59-18.88-3.55-2.24-8.22,13,3.55,2.24c3.39,2.14,5.76.24,8.33-3.82S302.85,693.3,299.46,691.17Z"/><path d="M312.82,727.59c-1.74,3.6-2.87,6.39-2.67,8A3.19,3.19,0,0,0,312,738a3.12,3.12,0,0,0,3,0,5.34,5.34,0,0,0,2.17-2.51l6.37,3.08c-1.48,2.77-3.31,4.85-6.21,6-2.55,1-5.12.64-8.07-.79s-4.64-3-5.6-5.89c-1.31-4,.92-9.41,3.7-15.18s5.61-10.85,9.59-12.33c2.88-1.05,5.42-.49,8,.76s4.54,2.86,5.57,5.8c1.3,3.74-.95,9.47-4.6,17Zm11.25-8.42a3.37,3.37,0,0,0-4.93-2.38c-1.12.64-2.27,2.39-4.06,6.11l6.73,3.25C323.61,722.43,324.27,720.45,324.08,719.17Z"/><path d="M346.09,758.24l8.38-23.86c.91-2.58-.1-4.35-1.92-5s-3.72.11-4.62,2.69l-8.38,23.86-6.67-2.35,11.66-33.17,6.42,2.26-.86,2.46a8.14,8.14,0,0,1,2.93-1.3,7,7,0,0,1,3.65.29,7.7,7.7,0,0,1,5.13,4.71c.79,2,.72,4-.63,7.84l-8.41,23.92Z"/><path d="M381.71,768.08l5.6-24.66c.61-2.67-.59-4.31-2.48-4.74s-3.68.53-4.29,3.2l-5.6,24.66L368,765l7.79-34.29,6.64,1.51-.58,2.54a8.12,8.12,0,0,1,2.76-1.63,7,7,0,0,1,3.66-.13,7.7,7.7,0,0,1,5.64,4.09c1,1.87,1.17,3.89.27,7.86l-5.62,24.72Z"/><path d="M421.26,771.8a10.14,10.14,0,0,1-7.95,2,10.86,10.86,0,0,1-7.37-3.73,10.7,10.7,0,0,1-2.22-8.24l7,.79a4.54,4.54,0,0,0,.82,3.45,4,4,0,0,0,5.36.68,3.79,3.79,0,0,0,1.31-2.67,4.4,4.4,0,0,0-.43-2.67,6,6,0,0,0-2.49-2.3l-4.41-2.58a11.27,11.27,0,0,1-4.65-4.62,8.85,8.85,0,0,1-.58-4.9,10.07,10.07,0,0,1,3.9-7.15,11.46,11.46,0,0,1,14.95,1.43,10.24,10.24,0,0,1,2.1,8.1l-6.9-.78a4.38,4.38,0,0,0-.63-3.29A3.24,3.24,0,0,0,416.7,744a3.44,3.44,0,0,0-4,3.24,3.42,3.42,0,0,0,.3,2.12,6,6,0,0,0,2.36,2.28l4.42,2.52a11.27,11.27,0,0,1,4.67,4.43,10.12,10.12,0,0,1,.81,5.87A10.66,10.66,0,0,1,421.26,771.8Z"/><path d="M450.29,779.86c-1.85,7-6.87,7.76-13.27,7.66l.1-6.27c3.07,0,5.41-.25,6.33-3.57l.64-2.46L435.92,740l7.8.13,4.28,24,5-23.87,7.8.13Z"/><path d="M475,772.3c-2.33-1.49-3.87-4-4.2-8.23l-2.91-36.72,7.05-.56,2.88,36.32c.25,3.13,1.9,4.6,5.16,4.34l.5,6.32C480.27,774,477.51,773.91,475,772.3Z"/><path d="M509.52,770l-7.37,1.26-14.56-33.18,7.69-1.32,8.65,22.82.49-24.39,7.69-1.32Z"/><path d="M542.5,762.17l-.82-2.89a9,9,0,0,1-1.42,2.83,6.5,6.5,0,0,1-3.52,2.25,7.84,7.84,0,0,1-7.16-1c-1.8-1.22-3.24-3.59-4.2-7a10.21,10.21,0,0,1,1-8.47c1.25-1.95,3.2-3.4,7.11-4.51l3-.86-1.33-4.69c-.71-2.5-2.26-3.59-4.38-3a3,3,0,0,0-2,1.6,4.5,4.5,0,0,0-.14,3.44l-6.8,1.93a10.25,10.25,0,0,1,.82-8.14,10.92,10.92,0,0,1,6.34-4.78c2.82-.8,5.66-.84,7.9.47a11.06,11.06,0,0,1,5.21,7.12l6.77,23.88Zm-4.62-14.85-2.25.64a4.85,4.85,0,0,0-3.24,2,5.89,5.89,0,0,0-.27,4.17c.85,3,2.55,4.34,4.86,3.69,2.05-.58,3.1-2.75,2.32-5.51Z"/><path d="M576.88,749.88l-9.59-23.4c-1-2.53-3-3.18-4.75-2.45s-2.7,2.55-1.67,5.08l9.59,23.4-6.54,2.68-13.33-32.54,6.3-2.58,1,2.41a8.16,8.16,0,0,1,1.33-2.92,7,7,0,0,1,2.92-2.21,7.7,7.7,0,0,1,7,.1c1.9,1,3.19,2.51,4.74,6.28l9.61,23.46Z"/><path d="M578.58,705.46,575,698.54l6.92-3.61,3.61,6.92Zm18.66,35-15.81-30.36,6.27-3.27,15.81,30.36Z"/><path d="M628.24,722.49,626.62,720a9,9,0,0,1-.54,3.12,6.5,6.5,0,0,1-2.72,3.17,7.85,7.85,0,0,1-7.15,1.09c-2.08-.65-4.14-2.5-6-5.48a10.21,10.21,0,0,1-1.49-8.39c.63-2.23,2.08-4.18,5.51-6.37l2.64-1.69-2.62-4.1c-1.4-2.19-3.21-2.78-5.06-1.59a3,3,0,0,0-1.43,2.1,4.49,4.49,0,0,0,.86,3.33l-6,3.81a10.24,10.24,0,0,1-1.57-8,10.92,10.92,0,0,1,4.69-6.41c2.47-1.58,5.17-2.44,7.7-1.84a11.06,11.06,0,0,1,7,5.31l13.38,20.91Zm-8.72-12.88-2,1.26a4.84,4.84,0,0,0-2.51,2.88,5.88,5.88,0,0,0,.94,4.07c1.69,2.64,3.69,3.42,5.72,2.13,1.8-1.15,2.18-3.53.63-5.95Z"/><path d="M298.06,190.39l-3.85,2.27,9.46,16-6.43,3.8-24.15-40.9,10.28-6.07c7.41-4.38,12.82-2.3,17.87,6.26S305.47,186,298.06,190.39Zm-11.49-18.94-3.62,2.14,7.83,13.27,3.62-2.14c3.45-2,2.85-5,.41-9.15S290,169.41,286.57,171.45Z"/><path d="M340,190l-10.18-23.14c-1.1-2.5-3-3.11-4.81-2.33s-2.64,2.62-1.54,5.12l10.18,23.14-6.47,2.85L308.05,152.2l6.47-2.85,5.88,13.37a6.83,6.83,0,0,1,1.14-2.54,7,7,0,0,1,2.86-2.28,7.7,7.7,0,0,1,7-.08c1.93.9,3.26,2.43,4.9,6.16l10.21,23.21Z"/><path d="M344.43,145.87l-2.48-7.4,7.4-2.48,2.48,7.4Zm13,37.46-10.86-32.46,6.71-2.24,10.86,32.46Z"/><path d="M378.4,174.73c-2.55-1.07-4.5-3.33-5.54-7.4l-9.11-35.68,6.85-1.75,9,35.29c.78,3,2.66,4.21,5.83,3.4l1.57,6.14C383.84,175.54,381.11,175.89,378.4,174.73Z"/><path d="M409.23,170.64l-.47-3a9,9,0,0,1-1.74,2.64,6.49,6.49,0,0,1-3.77,1.81,7.85,7.85,0,0,1-7-1.87c-1.64-1.43-2.79-4-3.34-7.44a10.2,10.2,0,0,1,2-8.29c1.47-1.79,3.58-3,7.6-3.63l3.1-.49-.76-4.81c-.41-2.57-1.82-3.83-4-3.49a3,3,0,0,0-2.15,1.35,4.49,4.49,0,0,0-.54,3.4l-7,1.1a10.25,10.25,0,0,1,1.78-8,10.92,10.92,0,0,1,6.87-4c2.9-.46,5.72-.16,7.79,1.4a11.07,11.07,0,0,1,4.32,7.69l3.88,24.52Zm-2.82-15.29-2.31.36a4.84,4.84,0,0,0-3.46,1.63,5.89,5.89,0,0,0-.77,4.11c.49,3.1,2,4.61,4.39,4.24,2.11-.33,3.41-2.36,3-5.2Z"/><path d="M440.39,167.83l-.12-2.67a6.73,6.73,0,0,1-2.23,2.31,6.43,6.43,0,0,1-3.49,1.17,7.28,7.28,0,0,1-6.33-2.44c-2.46-2.69-2.83-7.68-3.18-15.28s-.45-12.54,1.75-15.44a7.29,7.29,0,0,1,6.07-3,7,7,0,0,1,3.58.77,7.74,7.74,0,0,1,2.15,1.77l-.68-14.6,7.07-.33,2.22,47.46ZM439,142.72a4.3,4.3,0,0,0-1.22-3.22,3.17,3.17,0,0,0-2.45-.89,3.14,3.14,0,0,0-2.53,1.52c-.88,1.24-1,3.79-.65,10.45s.63,9.25,1.62,10.41a3.08,3.08,0,0,0,2.66,1.21,3.12,3.12,0,0,0,2.36-1,4.29,4.29,0,0,0,.91-3.32Z"/><path d="M465.32,152.47c-.24,4-.23,7,.56,8.39a3.19,3.19,0,0,0,2.64,1.56,3.12,3.12,0,0,0,2.75-1.17,5.34,5.34,0,0,0,1.06-3.14l7.06.43c-.32,3.12-1.22,5.74-3.49,7.87-2,1.88-4.5,2.53-7.76,2.33s-5.42-1-7.42-3.33c-2.74-3.24-2.72-9.06-2.33-15.45s1.08-12.17,4.19-15c2.26-2.07,4.83-2.51,7.7-2.34s5.29.92,7.35,3.26c2.63,3,2.72,9.12,2.21,17.51Zm7.22-12.06a3.37,3.37,0,0,0-5.46-.33c-.8,1-1.19,3.07-1.44,7.2l7.46.45C473.35,143.61,473.21,141.53,472.54,140.41Z"/><path d="M493,168.67c-1.92-2-2.84-4.82-2.2-9l5.6-36.4,7,1.08-5.54,36c-.48,3.1.8,4.92,4,5.41l-1,6.27C497.64,171.55,495,170.81,493,168.67Z"/><path d="M528.94,176.25a7.2,7.2,0,0,1-6.69,1.14,7,7,0,0,1-3.2-1.77,9.09,9.09,0,0,1-1.55-2.32l-3.57,14.17-6.86-1.73,11.61-46.06,6.6,1.66-.64,2.52a8.23,8.23,0,0,1,2.8-1.56,7,7,0,0,1,3.66,0,7.2,7.2,0,0,1,5.35,4.17c1.5,3.34.5,8.11-1.36,15.48S531.84,174,528.94,176.25Zm.75-26.44a3.14,3.14,0,0,0-2.18-2,3.07,3.07,0,0,0-2.57.38,4.57,4.57,0,0,0-1.83,2.91l-3.7,14.69a4.29,4.29,0,0,0,.24,3.43,3.26,3.26,0,0,0,2.1,1.49,3.08,3.08,0,0,0,2.85-.66c1.2-.94,2-3.41,3.66-9.88S530.3,151.2,529.69,149.81Z"/><path d="M553.66,187l8.93-23.66c1-2.56,0-4.35-1.81-5s-3.72,0-4.68,2.58l-8.93,23.66-6.62-2.5,16.77-44.45,6.62,2.5-5.16,13.67a6.84,6.84,0,0,1,2.59-1,7,7,0,0,1,3.64.37,7.7,7.7,0,0,1,5,4.82c.75,2,.62,4-.81,7.82l-9,23.72Z"/><path d="M570.75,194.4l15-30.79,6.36,3.09-15,30.79Zm17-35.82,3.41-7,7,3.41-3.41,7Z"/><path d="M598.93,209.68l1.55-2.57a9,9,0,0,1-3,.9,6.49,6.49,0,0,1-4-1,7.85,7.85,0,0,1-4.15-5.92c-.34-2.15.41-4.82,2.23-7.85a10.21,10.21,0,0,1,6.86-5.06c2.28-.42,4.67,0,8.16,2.1l2.69,1.62,2.51-4.17c1.34-2.23,1.07-4.11-.82-5.24a3,3,0,0,0-2.52-.35,4.5,4.5,0,0,0-2.6,2.25l-6.06-3.65a10.25,10.25,0,0,1,6.49-5,10.92,10.92,0,0,1,7.83,1.36c2.52,1.51,4.48,3.55,5.06,6.08a11.07,11.07,0,0,1-1.63,8.67l-12.79,21.27Zm7.67-13.53-2-1.2a4.84,4.84,0,0,0-3.69-1,5.89,5.89,0,0,0-3.23,2.65c-1.62,2.69-1.42,4.83.63,6.07,1.83,1.1,4.13.38,5.61-2.08Z"/></svg>