<svg id="Layer_1" data-name="Layer 1" xmlns="http://www.w3.org/2000/svg" viewBox="0 0 1014.43 481.86"><defs><style>.cls-1{fill:#fff;}</style></defs><title>ampshop-wordmark</title><path class="cls-1" d="M186.23,89.22,143.74,327.14C136,362.9,104.09,382,78.25,377.42c-28-5.31-46.38-31.16-41.07-57.36v.35c5-27.62,32.93-46.38,60.54-42.84l8.14,1.77L109.76,257a71.26,71.26,0,0,0-20.89-3.19c-34.7,0-67.27,26.91-74,62.31a80.74,80.74,0,0,0-1.06,12.75c0,33.63,24.78,63.38,60.54,70.1a68.49,68.49,0,0,0,14.16,1.42c36.82,0,70.81-29,79-74L209.6,89.22Z"/><path class="cls-1" d="M252.79,154.72h0Z"/><path class="cls-1" d="M455.65,86c-17,0-34.7,12.75-38.95,35.76L380.24,326.43H404l11.33-63.73h15.93l-11.68,63.73h23.72l37.53-208.89C483.26,100.9,472.29,86,455.65,86Zm1.77,31.51L435.11,240.4H419.18l22.66-123.56c1.06-5,5.31-8.14,9.21-8.14C456.36,108.69,458.13,113.3,457.42,117.54Z"/><path class="cls-1" d="M642.22,154.72c-6.73,0-12.39,2.83-17,5H606.11L584.49,283.44l-2.1,11.13a8.66,8.66,0,0,1-8.14,7.08,7.5,7.5,0,0,1-7.44-8.85l19.47-106.57c3.19-16.64-8.5-31.51-25.14-31.51-6.73,0-13.81,2.83-20.54,7.44-5.67-4.6-12-7.44-18.76-7.44-17,0-35.05,14.52-37.88,30.8L459.18,321.83H482.9L508,185.52c1.06-4.6,4.25-8.14,8.85-8.14,5.31,0,7.44,4.25,6.73,8.85l-24.78,135.6H522.2l17.7-97a15.36,15.36,0,0,1,.35-1.77l7.08-37.53c1.06-4.6,4.6-8.14,8.85-8.14,5.31,0,7.44,4.25,6.73,8.85l-20.18,108c-3.19,16.64,8.5,31.51,25.49,31.51a33.85,33.85,0,0,0,9.09-1.28l-8.39,48H592.3l9.21-51.34a31.08,31.08,0,0,0,9.91,2.48c17,0,31.86-12.75,35.05-30.8l18.76-106.21C668.07,170.3,657.8,154.72,642.22,154.72Zm0,31.51L623.11,293.51c-1.06,5.67-5.31,8.85-8.5,8.85-6,0-8.85-4.25-7.79-10.27l19.47-107.63a9,9,0,0,1,8.5-7.08A7.5,7.5,0,0,1,642.22,186.23Z"/><path class="cls-1" d="M740.64,164.28l8.14-47.09a9,9,0,0,1,8.14-7.44c5-.35,8.5,2.83,7.44,9.21l-12,70.81H775.7l12.75-71.87c2.48-16.64-8.85-31.51-25.49-31.51-18.41,0-34.7,15.22-37.88,32.93L716.92,165c-3.54,20.18,2.48,37.18,12.75,53.82,7.08,12,13.81,23,11,38.24l-6.37,36.47c-1.06,6-6.37,8.85-9.56,8.85-3.89,0-7.43-3.54-6.37-9.21l9.21-52H703.82l-9.91,53.11c-2.83,16.64,9.21,31.51,25.85,31.51,18.06,0,34.7-15.22,37.88-32.93l6.73-36.47a52.65,52.65,0,0,0,1.06-9.91c0-13.81-6.37-24.43-12.39-35.05C744.89,197.91,737.1,183.75,740.64,164.28Z"/><path class="cls-1" d="M830.93,154.72h0Z"/><path class="cls-1" d="M816.76,185.17c1.06-5.31,5.31-7.79,8.5-7.79,6,0,8.14,4.25,7.44,8.85l-20.18,108c-3.19,16.29,8.85,31.51,25.49,31.51A37.12,37.12,0,0,0,860,318a27.94,27.94,0,0,0,19.48,7.73c18.06,0,33.28-15.22,36.47-32.93l18.76-106.21c2.83-16.64-9.21-31.86-25.85-31.86-18.06.35-34.7,15.22-37.53,31.51l-19.12,108c0,.29-.08.58-.12.86-1,3.66-5,6.57-8,6.57-4.6,0-8.14-3.54-7.08-10.27l19.12-105.15c3.18-16.63-8.48-31.48-25.1-31.51a43,43,0,0,0-9.6,1.42L833,89.22H809.68L768.26,321.83h24.08Zm59.83,108,18.76-106.92c.71-5,5-8.85,8.85-8.85,4.6,0,8.14,3.19,7.44,8.14L892.53,293.15c-1.06,6.37-6.37,9.21-9.56,9.21C879.07,302.36,875.53,298.82,876.6,293.15Z"/><path class="cls-1" d="M990.95,154.72c-6.73,0-12.39,2.83-17,5H954.84l-43.55,248.9c-6,33.63-32.57,51-57,51C826,459.56,804,435.83,804,409.64c0-29.39,27.62-51,54.52-51a42.79,42.79,0,0,1,6.73.35,26,26,0,0,1,7.08,1.77c1.42-7.79,3.54-13.81,5-22-3.19-1.06-6.73-1.77-8.14-2.12a82.56,82.56,0,0,0-12.75-1.42c-41.42,0-75.06,37.17-75.06,75.06,0,41.42,37.53,71.52,74.7,71.52s70.46-28,78.6-74l15.58-86.74a31.08,31.08,0,0,0,9.91,2.48c17,0,31.86-12.75,35.05-30.8L1014,186.58C1016.79,170.3,1006.53,154.72,990.95,154.72Zm0,31.51L971.83,293.51c-1.06,5.67-5.31,8.85-8.5,8.85-6,0-8.85-4.25-7.79-10.27L975,184.46a9,9,0,0,1,8.5-7.08A7.5,7.5,0,0,1,990.95,186.23Z"/><path class="cls-1" d="M373.18,79.45l42.36-7.68-2-10.95L371.19,68.5l-1-5.25-4.56.83-.7-3.88L306.83,70.75l-15.92,7.39c-1.84.1-3.66.1-5.54.1-19.47,0-36.82-14.16-57-30.45C201.45,25.85,169.24,0,120.73,0a120.91,120.91,0,0,0,0,241.82h8.5c1.42-8.14,2.48-14.52,4.25-23-4.25.35-8.5.35-12.75.35a98.06,98.06,0,0,1-98.07-98.07c0-54.17,43.9-98.43,98.07-98.43,38.95,0,65.15,21.24,89.93,41.78,11.06,9.13,21.85,18.08,33.64,24.78H231.54L190.12,321.83h24.08l24.08-136.31c.71-3.89,4.25-8.14,8.85-8.14,6,0,8.14,4.25,7.44,8.85L228,326.79c-3.19,16.29,8.85,31.51,25.49,31.51,18.06,0,34.34-15.58,37.88-32.93l.22-1.12a27.65,27.65,0,0,0,9,1.48c17.7,0,35.41-15.58,38.59-32.93l4.25-22.66H319l-4.25,24.78c-.71,3.54-5,6.73-8.85,6.73-4.6,0-7.79-3.89-7.08-8.85l6.73-37.53H345.9l11.33-69c2.83-17-8.85-31.51-25.85-31.51-17.7,0-34.34,14.87-37.53,31.86L275.16,288.05l-7.5,38.73c-.71,3.89-4.25,7.43-8.14,7.43-4.6,0-7.79-3.89-6.73-8.85l25.14-139.14c2.83-16.63-8.48-31.48-25.09-31.51a45.81,45.81,0,0,0-9.6,1.42l10.83-62a76,76,0,0,0,30.6,6.44,34.41,34.41,0,0,0,9.81-1.29l17.65.68L370.27,89.4l-.7-3.88,4.56-.83ZM317.93,184.81a9,9,0,0,1,8.85-7.44c5,0,7.43,3.54,6.73,8.85L325.72,234H309.08Z"/><polygon class="cls-1" points="436.3 68 441.06 61.48 434.32 57.05 425.4 60.83 426.63 67.59 436.3 68"/><rect class="cls-1" x="416.79" y="59.71" width="6.77" height="11.13" transform="translate(-4.9 76.02) rotate(-10.28)"/></svg>